<svg width="48" height="49" viewBox="0 0 48 49" fill="none" xmlns="http://www.w3.org/2000/svg">
<rect opacity="0.12" x="0.000488281" y="0.5" width="48" height="48" rx="12" fill="#00AAFF"/>
<path fill-rule="evenodd" clip-rule="evenodd" d="M19.665 13.171C22.3961 11.5841 25.753 11.6118 28.4585 13.2436C31.1373 14.9086 32.7654 17.8802 32.7503 21.0768C32.6879 24.2524 30.9421 27.2375 28.7598 29.5451C27.5003 30.883 26.0913 32.066 24.5615 33.07C24.404 33.1611 24.2314 33.2221 24.0523 33.25C23.88 33.2427 23.7121 33.1917 23.5639 33.1018C21.2285 31.5932 19.1797 29.6675 17.5159 27.4175C16.1237 25.5392 15.3328 23.27 15.2505 20.918C15.2487 17.7153 16.9339 14.7578 19.665 13.171ZM21.2432 22.2434C21.7026 23.376 22.787 24.1147 23.99 24.1147C24.7781 24.1204 25.5357 23.8047 26.094 23.238C26.6523 22.6713 26.9648 21.9007 26.962 21.0979C26.9663 19.8725 26.2448 18.7653 25.1346 18.2934C24.0243 17.8215 22.7443 18.0779 21.8921 18.9429C21.04 19.8079 20.7838 21.1108 21.2432 22.2434Z" fill="#00AAFF"/>
<path opacity="0.4" d="M24.0005 37C27.4523 37 30.2505 36.4404 30.2505 35.75C30.2505 35.0596 27.4523 34.5 24.0005 34.5C20.5487 34.5 17.7505 35.0596 17.7505 35.75C17.7505 36.4404 20.5487 37 24.0005 37Z" fill="#00AAFF"/>
</svg>
