<svg width="295" height="51" viewBox="0 0 295 51" fill="none" xmlns="http://www.w3.org/2000/svg">
<path d="M7.33444 4.496V25.232C7.33444 27.504 7.92644 29.248 9.11044 30.464C10.2944 31.648 11.9584 32.24 14.1024 32.24C16.2784 32.24 17.9584 31.648 19.1424 30.464C20.3264 29.248 20.9184 27.504 20.9184 25.232V4.496H27.6864V25.184C27.6864 28.032 27.0624 30.448 25.8144 32.432C24.5984 34.384 22.9504 35.856 20.8704 36.848C18.8224 37.84 16.5344 38.336 14.0064 38.336C11.5104 38.336 9.23844 37.84 7.19044 36.848C5.17444 35.856 3.57444 34.384 2.39044 32.432C1.20644 30.448 0.614438 28.032 0.614438 25.184V4.496H7.33444ZM67.2032 11.024C70.4672 11.024 73.0912 12.032 75.0752 14.048C77.0912 16.032 78.0992 18.816 78.0992 22.4V38H71.3792V23.312C71.3792 21.232 70.8512 19.648 69.7952 18.56C68.7392 17.44 67.2992 16.88 65.4752 16.88C63.6512 16.88 62.1952 17.44 61.1072 18.56C60.0512 19.648 59.5232 21.232 59.5232 23.312V38H52.8032V23.312C52.8032 21.232 52.2752 19.648 51.2192 18.56C50.1632 17.44 48.7232 16.88 46.8992 16.88C45.0432 16.88 43.5712 17.44 42.4832 18.56C41.4272 19.648 40.8992 21.232 40.8992 23.312V38H34.1792V11.408H40.8992V14.624C41.7632 13.504 42.8672 12.624 44.2112 11.984C45.5872 11.344 47.0912 11.024 48.7232 11.024C50.8032 11.024 52.6592 11.472 54.2912 12.368C55.9232 13.232 57.1872 14.48 58.0832 16.112C58.9472 14.576 60.1952 13.344 61.8272 12.416C63.4912 11.488 65.2832 11.024 67.2032 11.024ZM96.2841 38.432C93.7241 38.432 91.4201 37.872 89.3721 36.752C87.3241 35.6 85.7081 33.984 84.5241 31.904C83.3721 29.824 82.7961 27.424 82.7961 24.704C82.7961 21.984 83.3881 19.584 84.5721 17.504C85.7881 15.424 87.4361 13.824 89.5161 12.704C91.5961 11.552 93.9161 10.976 96.4761 10.976C99.0361 10.976 101.356 11.552 103.436 12.704C105.516 13.824 107.148 15.424 108.332 17.504C109.548 19.584 110.156 21.984 110.156 24.704C110.156 27.424 109.532 29.824 108.284 31.904C107.068 33.984 105.404 35.6 103.292 36.752C101.212 37.872 98.8761 38.432 96.2841 38.432ZM96.2841 32.576C97.5001 32.576 98.6361 32.288 99.6921 31.712C100.78 31.104 101.644 30.208 102.284 29.024C102.924 27.84 103.244 26.4 103.244 24.704C103.244 22.176 102.572 20.24 101.228 18.896C99.9161 17.52 98.3001 16.832 96.3801 16.832C94.4601 16.832 92.8441 17.52 91.5321 18.896C90.2521 20.24 89.6121 22.176 89.6121 24.704C89.6121 27.232 90.2361 29.184 91.4841 30.56C92.7641 31.904 94.3641 32.576 96.2841 32.576ZM118.493 8.24C117.277 8.24 116.269 7.872 115.469 7.136C114.701 6.368 114.317 5.424 114.317 4.304C114.317 3.184 114.701 2.256 115.469 1.52C116.269 0.751998 117.277 0.367998 118.493 0.367998C119.677 0.367998 120.653 0.751998 121.421 1.52C122.189 2.256 122.573 3.184 122.573 4.304C122.573 5.424 122.189 6.368 121.421 7.136C120.653 7.872 119.677 8.24 118.493 8.24ZM121.805 42.368C121.805 45.312 121.069 47.424 119.597 48.704C118.157 50.016 116.077 50.672 113.357 50.672H110.381V44.96H112.301C113.325 44.96 114.045 44.752 114.461 44.336C114.877 43.952 115.085 43.312 115.085 42.416V11.408H121.805V42.368ZM126.717 24.608C126.717 21.92 127.245 19.536 128.301 17.456C129.389 15.376 130.845 13.776 132.669 12.656C134.525 11.536 136.589 10.976 138.861 10.976C140.845 10.976 142.573 11.376 144.045 12.176C145.549 12.976 146.749 13.984 147.645 15.2V11.408H154.413V38H147.645V34.112C146.781 35.36 145.581 36.4 144.045 37.232C142.541 38.032 140.797 38.432 138.813 38.432C136.573 38.432 134.525 37.856 132.669 36.704C130.845 35.552 129.389 33.936 128.301 31.856C127.245 29.744 126.717 27.328 126.717 24.608ZM147.645 24.704C147.645 23.072 147.325 21.68 146.685 20.528C146.045 19.344 145.181 18.448 144.093 17.84C143.005 17.2 141.837 16.88 140.589 16.88C139.341 16.88 138.189 17.184 137.133 17.792C136.077 18.4 135.213 19.296 134.541 20.48C133.901 21.632 133.581 23.008 133.581 24.608C133.581 26.208 133.901 27.616 134.541 28.832C135.213 30.016 136.077 30.928 137.133 31.568C138.221 32.208 139.373 32.528 140.589 32.528C141.837 32.528 143.005 32.224 144.093 31.616C145.181 30.976 146.045 30.08 146.685 28.928C147.325 27.744 147.645 26.336 147.645 24.704ZM191.072 4.496L178.784 38H170.624L158.336 4.496H165.536L174.752 31.136L183.92 4.496H191.072ZM219.821 24.128C219.821 25.088 219.757 25.952 219.629 26.72H200.189C200.349 28.64 201.021 30.144 202.205 31.232C203.389 32.32 204.845 32.864 206.573 32.864C209.069 32.864 210.845 31.792 211.901 29.648H219.149C218.381 32.208 216.909 34.32 214.733 35.984C212.557 37.616 209.885 38.432 206.717 38.432C204.157 38.432 201.853 37.872 199.805 36.752C197.789 35.6 196.205 33.984 195.053 31.904C193.933 29.824 193.373 27.424 193.373 24.704C193.373 21.952 193.933 19.536 195.053 17.456C196.173 15.376 197.741 13.776 199.757 12.656C201.773 11.536 204.093 10.976 206.717 10.976C209.245 10.976 211.501 11.52 213.485 12.608C215.501 13.696 217.053 15.248 218.141 17.264C219.261 19.248 219.821 21.536 219.821 24.128ZM212.861 22.208C212.829 20.48 212.205 19.104 210.989 18.08C209.773 17.024 208.285 16.496 206.525 16.496C204.861 16.496 203.453 17.008 202.301 18.032C201.181 19.024 200.493 20.416 200.237 22.208H212.861ZM231.446 15.536C232.31 14.128 233.43 13.024 234.806 12.224C236.214 11.424 237.814 11.024 239.606 11.024V18.08H237.83C235.718 18.08 234.118 18.576 233.03 19.568C231.974 20.56 231.446 22.288 231.446 24.752V38H224.726V11.408H231.446V15.536ZM254.308 38.432C252.132 38.432 250.18 38.048 248.452 37.28C246.724 36.48 245.348 35.408 244.324 34.064C243.332 32.72 242.788 31.232 242.692 29.6H249.46C249.588 30.624 250.084 31.472 250.948 32.144C251.844 32.816 252.948 33.152 254.26 33.152C255.54 33.152 256.532 32.896 257.236 32.384C257.972 31.872 258.34 31.216 258.34 30.416C258.34 29.552 257.892 28.912 256.996 28.496C256.132 28.048 254.74 27.568 252.82 27.056C250.836 26.576 249.204 26.08 247.924 25.568C246.676 25.056 245.588 24.272 244.66 23.216C243.764 22.16 243.316 20.736 243.316 18.944C243.316 17.472 243.732 16.128 244.564 14.912C245.428 13.696 246.644 12.736 248.212 12.032C249.812 11.328 251.684 10.976 253.828 10.976C256.996 10.976 259.524 11.776 261.412 13.376C263.3 14.944 264.34 17.072 264.532 19.76H258.1C258.004 18.704 257.556 17.872 256.756 17.264C255.988 16.624 254.948 16.304 253.636 16.304C252.42 16.304 251.476 16.528 250.804 16.976C250.164 17.424 249.844 18.048 249.844 18.848C249.844 19.744 250.292 20.432 251.188 20.912C252.084 21.36 253.476 21.824 255.364 22.304C257.284 22.784 258.868 23.28 260.116 23.792C261.364 24.304 262.436 25.104 263.332 26.192C264.26 27.248 264.74 28.656 264.772 30.416C264.772 31.952 264.34 33.328 263.476 34.544C262.644 35.76 261.428 36.72 259.828 37.424C258.26 38.096 256.42 38.432 254.308 38.432ZM295.009 24.128C295.009 25.088 294.945 25.952 294.817 26.72H275.377C275.537 28.64 276.209 30.144 277.393 31.232C278.577 32.32 280.033 32.864 281.761 32.864C284.257 32.864 286.033 31.792 287.089 29.648H294.337C293.569 32.208 292.097 34.32 289.921 35.984C287.745 37.616 285.073 38.432 281.905 38.432C279.345 38.432 277.041 37.872 274.993 36.752C272.977 35.6 271.393 33.984 270.241 31.904C269.121 29.824 268.561 27.424 268.561 24.704C268.561 21.952 269.121 19.536 270.241 17.456C271.361 15.376 272.929 13.776 274.945 12.656C276.961 11.536 279.281 10.976 281.905 10.976C284.433 10.976 286.689 11.52 288.673 12.608C290.689 13.696 292.241 15.248 293.329 17.264C294.449 19.248 295.009 21.536 295.009 24.128ZM288.049 22.208C288.017 20.48 287.393 19.104 286.177 18.08C284.961 17.024 283.473 16.496 281.713 16.496C280.049 16.496 278.641 17.008 277.489 18.032C276.369 19.024 275.681 20.416 275.425 22.208H288.049Z" fill="white"/>
</svg>
